<?xml version="1.0"?>
<svg xmlns="http://www.w3.org/2000/svg" xmlns:xlink="http://www.w3.org/1999/xlink" version="1.1" id="Capa_1" x="0px" y="0px" width="512px" height="512px" viewBox="0 0 546.125 546.125" style="enable-background:new 0 0 546.125 546.125;" xml:space="preserve" class=""><g><g>
	<g>
		<ellipse cx="269.74" cy="104.67" rx="11.897" ry="16.169" data-original="#000000" class="active-path" data-old_color="#000000" fill="#0BE8B3"/>
		<ellipse cx="109.885" cy="255.069" rx="10.067" ry="10.374" data-original="#000000" class="active-path" data-old_color="#000000" fill="#0BE8B3"/>
		<ellipse cx="173.031" cy="270.932" rx="10.979" ry="12.203" data-original="#000000" class="active-path" data-old_color="#000000" fill="#0BE8B3"/>
		<circle cx="256.318" cy="279.782" r="13.728" data-original="#000000" class="active-path" data-old_color="#000000" fill="#0BE8B3"/>
		<ellipse cx="328.926" cy="275.204" rx="11.285" ry="12.204" data-original="#000000" class="active-path" data-old_color="#000000" fill="#0BE8B3"/>
		<ellipse cx="385.365" cy="263.301" rx="10.985" ry="10.679" data-original="#000000" class="active-path" data-old_color="#000000" fill="#0BE8B3"/>
		<ellipse cx="443.633" cy="247.138" rx="10.68" ry="12.815" data-original="#000000" class="active-path" data-old_color="#000000" fill="#0BE8B3"/>
		<ellipse cx="116.599" cy="426.215" rx="11.897" ry="15.557" data-original="#000000" class="active-path" data-old_color="#000000" fill="#0BE8B3"/>
		<ellipse cx="218.185" cy="446.956" rx="13.421" ry="15.558" data-original="#000000" class="active-path" data-old_color="#000000" fill="#0BE8B3"/>
		<ellipse cx="343.571" cy="439.33" rx="11.897" ry="15.258" data-original="#000000" class="active-path" data-old_color="#000000" fill="#0BE8B3"/>
		<ellipse cx="443.333" cy="417.672" rx="7.932" ry="11.291" data-original="#000000" class="active-path" data-old_color="#000000" fill="#0BE8B3"/>
		<path d="M273.057,0c-70.778,0-123.96,81.102-149.358,129.444c-36.083,68.673-60.325,154.402-60.325,213.332    c0,114.027,92.106,203.35,209.689,203.35c117.584,0,209.689-89.322,209.689-203.35c0-58.93-24.241-144.665-60.324-213.332    C397.018,81.102,343.834,0,273.057,0z M134.53,135.136c4.976-9.474,11.077-20.276,18.165-31.451    c-0.239,1.187-0.404,2.423-0.404,3.727c0,7.417,4.094,13.427,9.149,13.427s9.149-6.01,9.149-13.427s-4.094-13.421-9.149-13.421    c-1.022,0-1.989,0.3-2.907,0.759c7.289-10.826,15.465-21.75,24.456-31.965c6.071,10.251,14.076,27.901,20.557,28.764    c9.149,1.224,53.69-43.317,69.554-42.705c15.863,0.606,45.147,39.045,56.744,36.61c11.592-2.442,3.048-40.27,9.149-43.93    c0.478-0.288,1.322-0.367,2.319-0.361c13.115,11.157,25.001,24.547,35.472,38.427c-1.12-0.532-2.338-0.845-3.616-0.845    c-5.393,0-9.762,5.19-9.762,11.592c0,6.401,4.369,11.591,9.762,11.591c5.392,0,9.761-5.189,9.761-11.591    c0-0.961-0.128-1.879-0.312-2.772c11.842,16.708,21.615,33.586,28.966,47.583c1.542,2.938,3.035,5.942,4.535,8.941    c-1.824,6.891-4.37,12.338-8.177,12.76c-10.985,1.224-48.201-29.284-59.181-27.454s-64.063,57.351-75.661,57.962    c-11.591,0.606-59.187-54.303-72.002-55.527c-12.815-1.218-50.643,45.766-61.622,44.548c-4.737-0.526-10.625-8.832-15.979-18.807    C127.04,149.934,130.699,142.424,134.53,135.136z M470.335,335.951c0.067,2.289,0.171,4.615,0.171,6.83    c0,48.084-17.503,91.457-46.757,124.707c-9.302-7.771-19.284-15.061-24.345-15.35c-10.979-0.605-57.963,58.576-70.166,60.404    c-12.209,1.83-44.541-42.1-54.915-42.1c-10.373,0-50.031,42.713-61.01,43.324c-10.986,0.605-57.357-59.799-66.506-61.01    c-4.798-0.643-14.443,6.768-23.868,15.367C97.56,439.545,80.907,403.4,76.69,363.154c6.867-8.715,14.743-17.172,19.474-17.172    c9.762,0,50.031,61.016,65.894,62.234c15.863,1.217,40.882-50.645,54.915-50.037c14.033,0.611,64.676,55.525,78.097,56.139    c13.428,0.605,53.69-57.969,62.234-61.018c8.543-3.047,45.147,42.1,56.133,41.488c10.979-0.611,39.657-65.895,46.977-67.111    C463.144,327.219,466.81,331.018,470.335,335.951z M461.847,272.946c-151.226,66.99-306.019,37.767-378.938,6.414    c4.621-22.613,11.31-46.481,19.651-70.221c34.223,13.317,90.9,28.843,169.322,28.843c78.097,0,134.836-19.149,169.267-35.661    C449.82,226.054,456.834,250.063,461.847,272.946z" data-original="#000000" class="active-path" data-old_color="#000000" fill="#0BE8B3"/>
	</g>
</g></g> </svg>
